{"glyphs":{":":{"x_min":0,"x_max":344,"ha":344,"o":"m 172 479 q 209 479 235 453 q 260 427 260 391 q 260 354 234 328 q 208 303 172 303 q 136 303 110 328 q 84 354 84 391 q 84 427 110 453 q 136 479 172 479 z m 172 159 q 209 159 235 133 q 260 107 260 71 q 260 34 234 9 q 208 -17 172 -17 q 136 -17 110 9 q 84 34 84 71 q 84 107 110 133 q 136 159 172 159 z"},"$":{"x_min":0,"x_max":500,"ha":500,"o":"m 222 731 l 275 731 l 275 680 q 328 677 367 667 q 407 657 447 637 q 422 572 413 499 l 369 505 q 368 570 346 598 q 324 625 271 633 l 271 417 q 373 346 396 326 q 429 295 445 263 q 461 231 461 185 q 461 114 411 58 q 361 1 271 -16 l 271 -97 l 215 -97 l 215 -19 q 123 -17 37 12 q 52 72 63 164 l 104 164 q 112 95 139 65 q 167 35 219 31 l 219 279 l 140 339 q 101 370 87 387 q 67 411 57 438 q 47 466 47 494 q 47 530 63 564 q 79 598 103 621 q 128 644 154 656 q 179 667 222 675 z m 222 628 q 191 617 177 596 q 162 576 162 549 q 162 524 174 504 q 187 483 222 455 z m 269 37 q 305 51 322 76 q 340 101 340 133 q 340 160 324 185 q 309 210 269 241 z"},"?":{"x_min":0,"x_max":406,"ha":406,"o":"m 63 515 l 22 515 q 39 595 44 663 q 138 702 203 702 q 288 702 330 657 q 372 612 372 554 q 372 527 363 502 q 354 477 333 444 q 322 427 277 370 q 232 313 227 306 q 218 291 209 267 q 201 243 195 199 l 146 199 q 147 262 158 308 q 170 354 207 433 q 235 492 235 525 q 235 560 214 582 q 192 603 160 603 q 128 603 106 586 q 84 568 63 515 z m 177 157 q 213 157 239 131 q 264 106 264 70 q 264 34 239 8 q 213 -17 177 -17 q 142 -17 116 8 q 90 34 90 70 q 90 106 116 131 q 141 157 177 157 z"},"<":{"x_min":0,"x_max":667,"ha":667,"o":"m 603 62 l 64 287 l 64 369 l 603 594 l 603 497 l 187 328 l 603 160 z"},"'":{"x_min":0,"x_max":281,"ha":281,"o":"m 153 353 l 129 353 l 78 539 q 68 574 68 602 q 68 635 89 656 q 110 677 140 677 q 171 677 192 657 q 212 636 212 604 q 212 583 201 540 z"},"=":{"x_min":0,"x_max":667,"ha":667,"o":"m 64 490 l 603 490 l 603 399 l 64 399 z m 64 258 l 603 258 l 603 168 l 64 168 z"},"a":{"x_min":0,"x_max":500,"ha":500,"o":"m 108 303 l 65 308 q 79 377 83 431 q 172 474 269 474 q 325 474 358 456 q 392 438 404 406 q 417 375 417 309 l 415 143 q 415 96 423 83 q 431 71 444 71 q 460 71 491 88 l 509 60 q 443 13 411 -2 q 388 -12 367 -12 q 339 -12 319 3 q 299 18 292 48 q 233 7 210 -3 q 187 -13 153 -13 q 103 -13 71 21 q 39 55 39 112 q 39 152 61 186 q 75 210 115 232 l 292 316 q 291 374 274 394 q 256 414 222 414 q 188 414 162 391 q 136 369 108 303 z m 292 263 q 211 226 190 202 q 169 178 169 139 q 169 100 185 81 q 201 62 226 62 q 245 62 262 75 q 280 88 286 111 q 292 134 292 208 q 292 226 292 263 z"},"L":{"x_min":0,"x_max":667,"ha":667,"o":"m 6 651 l 6 688 q 131 682 201 682 q 272 682 391 688 l 391 651 q 291 636 282 632 q 267 624 267 589 l 266 464 l 266 58 l 443 58 q 487 58 502 63 q 522 72 541 93 q 559 115 606 193 l 650 193 q 617 103 586 -5 q 378 0 241 0 q 128 0 6 -5 l 6 31 q 93 48 102 54 q 111 61 113 78 q 115 95 115 312 l 115 490 l 115 521 q 115 599 109 615 q 105 626 96 631 q 86 636 6 651 z"},"3":{"x_min":0,"x_max":510,"ha":510,"o":"m 111 522 l 65 522 q 79 566 93 646 q 133 672 174 686 q 214 699 256 699 q 334 699 376 660 q 417 621 417 560 q 417 518 397 484 q 377 450 325 411 q 386 394 420 347 q 455 301 455 236 q 455 150 395 79 q 312 -17 168 -17 q 101 -17 31 7 q 41 48 45 73 q 49 99 54 160 l 97 160 q 106 94 136 65 q 165 37 208 37 q 254 37 286 75 q 317 113 317 187 q 317 270 271 310 q 237 339 167 340 l 168 382 q 234 400 264 435 q 295 471 295 516 q 295 554 272 577 q 249 601 213 601 q 179 601 154 583 q 128 564 111 522 z"},";":{"x_min":0,"x_max":344,"ha":344,"o":"m 173 479 q 209 479 235 453 q 260 427 260 391 q 260 354 235 328 q 209 303 173 303 q 136 303 111 328 q 85 354 85 391 q 85 427 110 453 q 136 479 173 479 z m 95 21 l 74 47 q 83 59 103 83 q 134 122 162 161 q 208 148 235 113 q 262 78 262 32 q 262 -24 225 -91 q 187 -158 109 -227 l 74 -191 q 128 -120 146 -83 q 158 -59 158 -31 q 158 -5 144 10 q 131 24 114 24 q 107 24 95 21 z"},"J":{"x_min":0,"x_max":469,"ha":469,"o":"m 104 651 l 104 688 q 223 682 293 682 q 367 682 470 688 l 470 651 l 400 637 q 382 633 376 628 q 372 625 370 619 q 365 605 364 569 q 363 532 363 370 l 364 291 q 364 181 359 151 q 351 99 323 61 q 295 23 247 1 q 199 -20 141 -20 q 92 -20 27 0 q 40 65 42 185 l 92 185 q 99 87 121 58 q 136 36 163 36 q 197 36 207 77 q 213 105 213 375 q 213 584 211 602 q 209 621 201 627 q 188 636 104 651 z"},"V":{"x_min":0,"x_max":719,"ha":719,"o":"m 4 651 l 4 688 q 141 682 182 682 q 238 682 347 688 l 347 651 q 287 637 278 630 q 270 623 270 612 q 270 602 277 583 l 411 209 l 501 459 l 550 600 q 552 607 552 613 q 552 624 539 631 q 536 632 473 651 l 473 688 q 552 682 597 682 q 637 682 715 688 l 715 651 q 666 640 650 628 q 641 622 633 608 q 626 594 539 376 q 478 222 388 -20 l 344 -20 l 193 373 q 107 588 95 608 q 89 619 79 626 q 65 636 4 651 z"},"\"":{"x_min":0,"x_max":552,"ha":552,"o":"m 406 352 l 382 352 l 333 540 q 321 582 321 604 q 321 634 343 656 q 364 677 395 677 q 430 677 448 654 q 466 631 466 605 q 466 590 454 540 z m 171 352 l 147 352 l 96 540 q 86 576 86 603 q 86 635 107 656 q 128 677 159 677 q 189 677 210 657 q 230 637 230 605 q 230 584 219 539 z"},"7":{"x_min":0,"x_max":510,"ha":510,"o":"m 86 499 l 39 499 q 86 612 112 688 q 208 682 309 682 q 403 682 482 688 l 482 643 l 362 303 q 338 230 313 150 q 289 70 265 -17 q 224 -13 193 -13 q 164 -13 132 -17 l 120 -1 q 151 58 196 149 q 251 263 392 563 l 163 563 q 139 563 128 555 q 113 544 86 499 z"},"S":{"x_min":0,"x_max":552,"ha":552,"o":"m 488 489 l 439 489 q 423 583 391 615 q 358 647 302 647 q 251 647 223 621 q 195 595 195 554 q 195 518 221 489 q 247 459 344 415 q 441 371 480 322 q 519 273 519 200 q 519 112 452 46 q 386 -20 239 -20 q 186 -20 139 -12 q 104 -7 51 10 q 59 96 59 180 l 59 212 l 107 212 q 125 115 153 83 q 189 38 254 38 q 306 38 337 69 q 369 100 369 147 q 369 178 356 201 q 343 225 317 244 q 292 263 224 294 q 121 343 85 388 q 50 433 50 494 q 50 584 117 643 q 183 702 308 702 q 391 702 488 670 q 485 594 485 564 q 485 529 488 489 z"},"}":{"x_min":0,"x_max":396,"ha":396,"o":"m 44 -202 l 44 -180 q 93 -170 116 -145 q 140 -120 140 -88 q 140 -56 128 -7 q 116 42 116 77 q 116 112 136 146 q 156 181 194 205 q 219 222 275 237 q 215 256 188 274 q 152 299 133 333 q 115 366 115 399 q 115 426 127 475 q 139 524 139 558 q 139 595 117 620 q 95 645 44 655 l 44 677 q 89 677 109 672 q 146 664 177 642 q 208 620 227 588 q 246 555 246 521 q 246 489 231 431 q 220 387 220 355 q 220 314 244 287 q 268 260 315 252 l 315 223 q 268 215 244 187 q 220 158 220 116 q 220 84 230 43 q 245 -15 245 -44 q 245 -77 227 -110 q 208 -142 179 -163 q 150 -184 116 -193 q 90 -200 44 -202 z"},"Z":{"x_min":0,"x_max":646,"ha":646,"o":"m 102 493 l 61 493 q 71 582 76 688 q 221 682 337 682 q 449 682 611 688 l 611 646 q 562 580 441 405 q 250 128 208 58 l 424 58 q 483 58 501 65 q 520 72 536 95 q 561 130 580 193 l 624 193 l 602 83 q 597 57 588 -5 l 302 0 q 228 0 20 -5 l 20 34 l 295 434 l 419 622 l 221 622 q 181 622 166 616 q 150 611 143 600 q 125 574 112 527 q 109 516 102 493 z"},"x":{"x_min":0,"x_max":531,"ha":531,"o":"m 29 428 l 29 462 q 114 457 158 457 q 200 457 289 462 l 289 428 q 262 424 252 417 q 246 412 246 405 q 246 394 294 314 q 362 388 362 408 q 362 413 358 417 q 354 420 329 428 l 329 462 q 373 457 418 457 q 464 457 507 462 l 507 428 q 477 422 463 417 q 453 413 443 404 q 432 396 413 372 l 333 273 l 436 100 q 459 65 481 48 q 496 37 524 29 l 524 -5 q 457 0 401 0 q 341 0 259 -5 l 259 29 q 288 34 299 43 q 305 48 305 56 q 305 63 302 72 q 291 95 257 150 q 251 160 240 180 q 145 68 145 55 q 145 48 152 43 q 163 35 197 29 l 197 -5 q 126 0 100 0 q 70 0 5 -5 l 5 29 q 29 30 42 37 q 59 47 84 76 q 89 82 203 218 q 110 377 90 398 q 69 419 29 428 z"},")":{"x_min":0,"x_max":333,"ha":333,"o":"m 21 -210 l 21 -162 q 66 -113 88 -69 q 120 -8 138 81 q 157 169 157 268 q 157 381 130 477 q 108 552 77 604 q 59 632 21 667 l 21 713 q 100 681 155 630 q 232 558 266 464 q 301 369 301 264 q 301 99 222 -27 q 144 -154 21 -210 z"},"&":{"x_min":0,"x_max":802,"ha":802,"o":"m 511 411 l 511 442 q 571 437 621 437 q 665 437 744 442 l 744 408 q 703 402 683 392 q 663 382 648 364 q 638 352 612 307 q 578 246 537 187 q 577 141 614 120 q 651 99 679 99 q 698 99 716 106 q 734 114 761 136 l 788 102 q 719 35 669 5 q 638 -12 608 -12 q 572 -12 533 8 q 495 29 442 81 q 374 24 328 6 q 281 -12 220 -12 q 127 -12 77 36 q 26 83 26 157 q 26 204 50 246 q 73 288 113 318 q 152 348 236 390 q 209 446 200 475 q 192 505 192 533 q 192 608 244 655 q 296 702 388 702 q 455 702 487 672 q 520 643 520 592 q 520 540 489 498 q 458 456 381 411 q 442 297 498 230 q 528 271 542 309 q 556 346 556 369 q 556 383 548 392 q 541 401 511 411 z m 359 456 q 395 480 409 503 q 429 536 429 575 q 429 614 411 635 q 394 657 369 657 q 347 657 333 640 q 319 624 319 588 q 319 566 326 539 q 333 513 359 456 z m 257 347 q 211 321 191 295 q 164 256 164 210 q 164 159 202 120 q 240 81 289 81 q 318 81 345 90 q 372 100 405 123 q 363 173 336 214 q 317 242 257 347 z"},"_":{"x_min":0,"x_max":500,"ha":500,"o":"m -6 -75 l 506 -75 l 506 -125 l -6 -125 z"},"v":{"x_min":0,"x_max":531,"ha":531,"o":"m 17 428 l 17 462 q 96 457 152 457 q 210 457 286 462 l 286 428 q 246 418 240 414 q 232 407 232 397 q 232 389 236 376 l 308 175 l 379 377 q 383 388 383 396 q 383 404 376 411 q 370 417 342 428 l 342 462 q 398 457 432 457 q 467 457 515 462 l 515 428 q 469 413 455 393 q 441 374 373 190 q 335 91 290 -17 l 250 -17 l 146 237 l 85 381 q 76 397 67 405 q 58 412 17 428 z"},"O":{"x_min":0,"x_max":813,"ha":813,"o":"m 42 330 q 42 498 145 600 q 248 702 421 702 q 584 702 677 610 q 770 518 770 364 q 770 266 733 185 q 705 121 659 77 q 613 33 565 12 q 494 -20 394 -20 q 227 -20 135 72 q 42 165 42 330 z m 211 356 q 211 179 276 95 q 324 33 413 33 q 475 33 517 64 q 559 96 580 166 q 601 236 601 329 q 601 400 588 465 q 576 530 554 566 q 532 603 495 625 q 458 648 406 648 q 348 648 302 615 q 257 583 234 513 q 211 444 211 356 z"},"(":{"x_min":0,"x_max":333,"ha":333,"o":"m 312 713 l 312 665 q 268 615 245 571 q 213 511 195 422 q 177 333 177 234 q 177 121 204 26 q 225 -50 256 -101 q 274 -130 312 -164 l 312 -210 q 233 -179 178 -127 q 101 -56 67 39 q 33 133 33 238 q 33 403 111 530 q 189 656 312 713 z"},"C":{"x_min":0,"x_max":760,"ha":760,"o":"m 679 129 l 704 82 q 620 26 548 3 q 477 -20 398 -20 q 233 -20 139 74 q 44 168 44 327 q 44 496 151 599 q 257 702 445 702 q 505 702 561 693 q 617 683 700 657 q 697 625 697 591 q 697 532 704 447 l 650 447 q 626 541 618 557 q 600 593 559 619 q 518 644 447 644 q 340 644 282 579 q 212 500 212 361 q 212 218 282 143 q 352 68 471 68 q 576 68 679 129 z"},"W":{"x_min":0,"x_max":1062,"ha":1062,"o":"m 5 651 l 5 688 q 86 682 155 682 q 202 682 341 688 l 341 651 q 295 642 280 629 q 271 622 271 611 q 271 604 272 597 q 274 592 312 476 l 398 218 q 421 273 508 503 q 479 583 469 602 q 458 620 446 628 q 433 635 380 651 l 380 688 q 499 682 551 682 q 602 682 717 688 l 717 651 l 705 648 q 656 637 647 630 q 639 623 639 612 q 639 607 640 600 l 697 422 q 730 318 764 224 q 888 583 888 613 q 888 623 879 630 q 870 638 811 651 l 811 688 q 885 682 928 682 q 958 682 1057 688 l 1057 651 q 1002 641 986 627 q 969 614 954 570 q 943 539 912 456 q 848 289 742 -20 l 696 -20 q 649 134 541 415 q 441 164 375 -20 l 330 -20 l 205 334 q 122 561 104 597 q 94 616 83 624 q 67 636 5 651 z"},"A":{"x_min":0,"x_max":781,"ha":781,"o":"m 436 -5 l 436 31 q 495 42 504 48 q 513 55 513 67 q 513 74 510 83 q 502 103 459 206 q 391 207 345 207 q 307 207 219 206 q 165 78 165 65 q 165 54 173 48 q 181 42 242 31 l 242 -5 q 181 0 125 0 q 64 0 1 -5 l 1 31 q 45 40 62 52 q 73 60 83 75 q 102 106 196 313 q 256 445 368 702 l 407 702 q 453 587 595 274 q 674 100 690 76 q 701 59 711 52 q 722 45 779 31 l 779 -5 q 693 0 619 0 q 545 0 436 -5 z m 342 492 l 242 262 l 339 261 q 374 261 438 262 z"},"f":{"x_min":0,"x_max":344,"ha":344,"o":"m 409 554 l 366 557 q 354 622 337 641 q 319 660 293 660 q 260 660 240 631 q 221 603 221 500 q 221 493 221 457 l 270 456 q 306 456 349 462 l 356 450 q 340 423 326 393 q 274 400 221 401 l 223 124 l 222 96 q 222 64 233 52 q 245 41 291 32 q 296 31 309 29 l 309 -5 q 195 0 148 0 q 90 0 17 -5 l 17 29 q 70 43 79 52 q 87 62 89 111 q 92 160 92 401 q 56 401 21 396 l 21 431 q 57 445 92 466 q 92 540 96 557 q 104 593 127 623 q 157 662 208 687 q 258 712 314 712 q 373 712 438 690 q 427 652 423 634 z"},"Q":{"x_min":0,"x_max":813,"ha":813,"o":"m 139 66 q 95 115 74 165 q 43 241 43 330 q 43 480 127 580 q 230 702 423 702 q 584 702 677 610 q 770 519 770 363 q 770 193 671 89 q 573 -14 426 -14 q 383 -14 324 0 q 481 -65 580 -91 q 632 -105 679 -105 q 711 -105 742 -99 q 772 -93 822 -75 l 839 -110 q 744 -171 688 -196 q 655 -209 627 -209 q 601 -209 564 -198 q 514 -182 461 -153 q 431 -136 328 -67 q 261 -21 214 -4 q 167 14 87 24 l 87 73 q 111 71 139 66 z m 212 365 q 212 179 278 95 q 325 32 419 32 q 502 32 546 89 q 602 163 602 335 q 602 507 541 586 q 493 648 409 648 q 347 648 300 613 q 253 579 233 509 q 212 438 212 365 z"},"w":{"x_min":0,"x_max":823,"ha":823,"o":"m 20 428 l 20 462 q 100 457 155 457 q 212 457 283 462 l 283 428 q 250 419 242 413 q 235 406 235 397 q 235 388 246 358 l 317 164 l 393 335 q 369 396 358 407 q 347 418 312 428 l 312 462 l 341 460 q 416 457 445 457 q 455 457 574 462 l 574 428 q 538 421 527 413 q 519 406 519 397 q 519 388 528 363 l 596 177 l 659 355 q 669 386 669 396 q 669 403 665 409 q 659 416 642 422 q 638 424 630 428 l 630 462 q 693 457 718 457 q 743 457 803 462 l 803 428 q 762 414 752 404 q 742 395 727 356 l 579 -17 l 537 -17 q 497 86 422 264 l 296 -17 l 254 -17 l 111 330 q 89 385 79 396 q 69 406 20 428 z"},"-":{"x_min":0,"x_max":354,"ha":354,"o":"m 39 171 l 26 185 q 46 237 57 286 q 105 283 163 283 q 253 283 313 286 l 325 271 q 306 223 293 171 q 218 174 131 174 q 77 174 39 171 z"},"E":{"x_min":0,"x_max":667,"ha":667,"o":"m 8 651 l 8 688 q 125 682 264 682 q 424 682 594 688 q 595 585 606 509 l 564 509 q 559 525 556 533 q 532 603 519 614 q 505 625 457 625 l 271 625 q 267 543 266 386 l 351 385 q 417 385 432 398 q 448 411 465 485 l 505 485 q 500 413 500 358 q 500 306 505 228 l 465 228 q 451 307 438 319 q 426 331 362 331 l 266 331 l 266 58 l 460 58 q 493 58 503 62 q 521 68 535 84 q 564 117 604 188 l 647 188 q 619 107 586 -5 q 420 0 238 0 q 156 0 8 -5 l 8 31 q 89 45 101 54 q 117 65 117 111 l 117 127 l 118 321 l 118 477 l 117 549 q 117 602 112 614 q 106 627 91 634 q 76 642 8 651 z"},"s":{"x_min":0,"x_max":406,"ha":406,"o":"m 42 156 l 86 156 q 99 89 129 60 q 158 32 197 32 q 227 32 244 48 q 262 63 262 86 q 262 107 245 127 q 228 146 157 187 q 87 228 64 261 q 40 294 40 335 q 40 395 88 437 q 137 479 227 479 q 292 479 360 449 q 354 422 346 327 l 304 328 q 293 386 269 410 q 244 434 211 434 q 185 434 170 420 q 155 406 155 384 q 155 365 168 350 q 186 328 249 293 q 327 249 351 216 q 375 184 375 141 q 375 82 330 32 q 285 -17 175 -17 q 112 -17 36 5 q 42 91 42 156 z"},">":{"x_min":0,"x_max":667,"ha":667,"o":"m 64 594 l 603 369 l 603 287 l 64 62 l 64 159 l 480 328 l 64 496 z"},"l":{"x_min":0,"x_max":302,"ha":302,"o":"m 10 610 l 10 645 q 82 662 120 675 q 158 689 203 712 l 227 695 q 220 633 216 548 q 212 463 212 355 q 212 123 214 92 q 215 62 223 53 q 234 41 285 29 l 285 -5 q 208 0 146 0 q 83 0 6 -5 l 6 29 q 61 41 70 51 q 80 62 82 97 q 85 149 85 372 q 85 578 82 592 q 78 614 48 614 q 35 614 10 610 z"},"8":{"x_min":0,"x_max":510,"ha":510,"o":"m 165 333 q 99 385 75 425 q 52 464 52 514 q 52 592 112 645 q 171 699 274 699 q 364 699 410 659 q 456 619 456 557 q 456 513 433 477 q 410 441 336 386 q 420 324 447 282 q 474 239 474 185 q 474 99 412 41 q 351 -17 242 -17 q 140 -17 90 28 q 40 73 40 145 q 40 198 65 238 q 90 278 165 333 z m 287 422 q 318 451 329 473 q 348 510 348 548 q 348 594 323 620 q 298 646 258 646 q 220 646 197 623 q 174 600 174 563 q 174 536 194 507 q 215 478 287 422 z m 216 294 q 190 265 179 240 q 162 200 162 158 q 162 101 191 68 q 220 35 259 35 q 294 35 319 62 q 343 88 343 131 q 343 169 318 205 q 292 242 216 294 z"},"\\":{"x_min":0,"x_max":563,"ha":563,"o":"m 54 696 l 150 696 l 509 -18 l 412 -18 z"},"e":{"x_min":0,"x_max":469,"ha":469,"o":"m 419 127 l 444 90 q 368 25 303 -4 q 275 -17 232 -17 q 141 -17 93 37 q 33 104 33 216 q 33 333 102 406 q 171 479 274 479 q 368 479 411 422 q 440 385 444 306 q 420 290 399 270 q 348 271 294 271 q 225 271 166 270 q 165 259 165 251 q 165 183 197 130 q 228 78 291 78 q 322 78 350 88 q 378 99 419 127 z m 167 320 q 194 319 211 319 q 253 319 314 323 q 311 385 293 405 q 275 426 244 426 q 214 426 192 401 q 171 377 167 320 z"},"b":{"x_min":0,"x_max":521,"ha":521,"o":"m -15 609 l -15 643 q 81 664 178 712 l 202 697 q 188 606 188 433 q 188 417 189 385 q 250 444 277 460 q 305 475 337 475 q 399 475 442 424 q 485 374 485 273 q 485 145 403 64 q 321 -17 192 -17 q 129 -17 57 11 q 62 148 62 351 q 62 576 59 588 q 54 612 27 612 q 15 612 -15 609 z m 189 65 q 224 47 252 47 q 296 47 319 77 q 352 120 352 211 q 352 304 320 351 q 299 380 265 380 q 233 380 211 352 q 189 324 189 259 z"},"%":{"x_min":0,"x_max":823,"ha":823,"o":"m 34 495 q 34 599 77 649 q 120 699 188 699 q 251 699 289 655 q 326 611 326 514 q 326 415 283 367 q 240 318 173 318 q 108 318 71 360 q 34 401 34 495 z m 130 497 q 130 403 145 379 q 160 355 180 355 q 200 355 212 376 q 230 409 230 522 q 230 610 212 640 q 200 659 181 659 q 154 659 144 631 q 134 603 130 497 z m 573 699 l 645 699 l 252 -40 l 179 -40 z m 497 149 q 497 243 541 292 q 585 341 653 341 q 715 341 752 298 q 789 254 789 161 q 789 59 747 10 q 705 -40 636 -40 q 571 -40 534 4 q 497 48 497 149 z m 594 147 q 594 48 612 17 q 622 0 643 0 q 665 0 674 17 q 692 51 692 167 q 692 254 675 284 q 664 302 643 302 q 624 302 614 284 q 594 248 594 147 z"},"m":{"x_min":0,"x_max":833,"ha":833,"o":"m 11 375 l 11 408 q 122 430 205 475 l 228 463 q 222 427 219 379 q 275 443 302 458 q 329 474 366 474 q 417 474 448 447 q 472 428 485 379 q 532 434 566 454 q 601 474 640 474 q 683 474 713 453 q 743 433 751 399 q 759 366 759 274 l 759 197 q 759 86 763 64 q 765 54 773 48 q 782 42 832 29 l 832 -5 q 752 0 703 0 q 653 0 573 -5 l 573 29 q 615 41 622 48 q 629 55 630 73 q 633 96 633 235 q 633 307 629 327 q 625 355 610 368 q 596 381 573 381 q 543 381 520 360 q 497 340 491 302 q 487 282 487 162 q 487 79 489 66 q 491 53 500 46 q 508 39 545 29 l 545 -5 q 482 0 429 0 q 379 0 301 -5 l 301 29 q 339 39 347 46 q 355 53 357 67 q 360 85 360 208 q 360 302 358 318 q 354 351 340 366 q 326 381 300 381 q 270 381 248 361 q 226 341 220 312 q 214 284 214 222 q 214 81 215 70 q 217 55 227 46 q 236 37 272 29 l 272 -5 q 190 0 143 0 q 95 0 11 -5 l 11 29 q 71 42 78 55 q 87 73 87 246 q 87 348 83 358 q 76 379 49 379 q 33 379 11 375 z"},"#":{"x_min":0,"x_max":667,"ha":667,"o":"m 40 489 l 193 489 l 234 680 l 315 680 l 273 489 l 458 489 l 499 680 l 580 680 l 539 489 l 627 489 l 627 408 l 523 408 l 490 249 l 627 249 l 627 167 l 475 167 l 434 -22 l 353 -22 l 394 167 l 208 167 l 168 -22 l 87 -22 l 127 167 l 40 167 l 40 249 l 144 249 l 177 408 l 40 408 z m 258 408 l 225 249 l 410 249 l 443 408 z"},",":{"x_min":0,"x_max":344,"ha":344,"o":"m 95 21 l 74 47 q 83 59 103 83 q 134 122 162 161 q 208 148 235 113 q 262 78 262 32 q 262 -24 225 -91 q 187 -158 109 -227 l 74 -191 q 128 -120 146 -83 q 158 -59 158 -31 q 158 -5 144 10 q 131 24 114 24 q 107 24 95 21 z"},"n":{"x_min":0,"x_max":562,"ha":562,"o":"m 12 374 l 12 409 q 76 422 119 438 q 162 453 204 476 l 229 461 q 222 424 220 380 q 274 442 301 458 q 329 474 366 474 q 402 474 429 459 q 456 445 469 424 q 481 402 485 365 q 488 342 488 255 l 487 168 q 487 84 489 69 q 491 54 499 48 q 506 41 542 33 q 548 32 561 29 l 561 -5 q 479 0 434 0 q 389 0 300 -5 l 300 29 q 338 38 346 46 q 354 53 356 71 q 359 95 359 232 q 359 330 351 350 q 337 381 300 381 q 272 381 250 362 q 227 342 221 312 q 214 282 214 179 q 214 86 218 64 q 220 52 227 46 q 234 41 273 29 l 273 -5 q 199 0 149 0 q 103 0 12 -5 l 12 29 q 65 43 73 49 q 80 56 82 79 q 86 131 86 215 q 86 344 83 356 q 78 378 54 378 q 39 378 12 374 z"},"h":{"x_min":0,"x_max":562,"ha":562,"o":"m 8 610 l 8 646 q 85 664 122 677 q 158 689 200 712 l 225 697 q 219 651 216 576 q 211 469 211 411 l 211 381 q 273 443 300 458 q 327 473 366 473 q 420 473 448 448 q 477 423 483 383 q 487 356 487 218 q 487 106 489 79 q 490 60 498 51 q 506 43 542 34 q 548 32 561 29 l 561 -5 q 477 0 429 0 q 377 0 300 -5 l 300 29 q 343 40 351 50 q 359 59 359 91 q 359 299 358 307 q 355 347 339 363 q 323 379 295 379 q 268 379 246 362 q 223 344 216 313 q 211 292 211 193 q 211 83 213 68 q 215 53 225 44 q 234 36 270 29 l 270 -5 q 193 0 149 0 q 119 0 8 -5 l 8 29 q 16 31 21 32 q 60 42 67 49 q 77 61 79 93 q 83 163 83 363 l 81 576 q 81 596 73 605 q 65 614 51 614 q 33 614 8 610 z"},"z":{"x_min":0,"x_max":479,"ha":479,"o":"m 100 308 l 59 308 q 65 362 67 462 q 169 457 257 457 q 349 457 445 462 l 445 422 q 432 404 277 175 l 196 55 l 225 55 q 322 55 341 60 q 359 64 369 79 q 378 93 391 158 l 436 158 q 430 96 429 -5 q 317 0 231 0 q 145 0 28 -5 l 28 32 q 105 140 278 399 q 262 399 252 399 q 171 399 153 395 q 135 391 126 379 q 113 362 100 308 z"},"B":{"x_min":0,"x_max":656,"ha":656,"o":"m 4 651 l 4 688 q 123 682 205 682 q 236 682 309 684 q 343 685 372 685 q 475 685 521 654 q 582 614 582 537 q 582 469 536 424 q 501 389 431 367 q 494 362 532 345 q 570 328 591 292 q 612 257 612 210 q 612 152 579 102 q 546 51 480 24 q 415 -3 311 -3 q 283 -3 241 -2 q 186 0 166 0 q 129 0 4 -5 l 4 31 l 86 48 q 97 52 102 57 q 107 62 110 72 q 114 87 115 157 q 116 280 116 386 q 116 445 113 572 q 112 609 104 622 q 100 629 89 633 q 85 635 4 651 z m 260 384 l 284 384 q 364 384 400 418 q 437 452 437 518 q 437 575 406 604 q 376 634 319 634 q 295 634 260 629 z m 260 333 l 260 57 q 292 51 320 51 q 387 51 421 87 q 455 123 455 198 q 455 275 416 304 q 377 333 285 333 z"},"K":{"x_min":0,"x_max":781,"ha":781,"o":"m 8 651 l 8 688 q 102 682 194 682 q 288 682 377 688 l 377 651 l 296 635 q 281 629 275 620 q 269 610 269 576 l 268 353 q 415 498 479 576 q 509 613 509 625 q 509 633 499 638 q 495 640 437 651 l 437 688 q 530 682 588 682 q 646 682 730 688 l 730 651 q 659 641 636 629 q 614 618 565 570 l 397 398 q 436 350 510 262 q 573 189 614 137 q 655 85 685 67 q 715 48 792 31 l 792 -5 q 697 0 601 0 q 503 0 413 -5 l 413 31 q 458 36 470 44 q 478 49 478 59 q 478 66 461 88 l 268 341 l 268 307 l 268 154 q 268 82 272 66 q 275 56 286 50 q 296 44 358 34 q 365 33 377 31 l 377 -5 q 284 0 209 0 q 146 0 8 -5 l 8 31 q 91 45 105 55 q 114 62 116 80 q 118 105 118 359 q 118 574 116 596 q 114 619 105 625 q 93 636 8 651 z"},"R":{"x_min":0,"x_max":729,"ha":729,"o":"m 6 651 l 6 688 q 171 682 201 682 q 232 682 292 684 q 353 686 381 686 q 454 686 494 667 q 535 648 559 608 q 584 567 584 518 q 584 475 566 436 q 549 396 520 369 q 500 351 458 330 q 492 273 556 168 q 603 92 617 77 q 631 62 648 53 q 673 42 741 31 l 741 -5 q 658 0 605 0 q 550 0 470 -5 q 410 132 317 309 q 289 310 259 312 l 260 109 q 261 72 267 63 q 272 54 282 50 q 289 46 369 31 l 369 -5 q 255 0 187 0 q 119 0 6 -5 l 6 31 q 89 46 99 54 q 110 62 113 87 q 114 100 115 337 l 114 483 q 114 585 110 606 q 107 622 97 629 q 86 637 28 647 z m 259 368 q 284 367 295 367 q 364 367 396 399 q 429 432 429 498 q 429 561 398 594 q 367 626 314 626 q 293 626 259 623 z"},"T":{"x_min":0,"x_max":677,"ha":677,"o":"m 656 482 l 611 482 q 577 585 570 599 q 562 612 548 618 q 535 624 461 624 l 414 624 l 414 167 q 414 83 420 65 q 423 56 434 50 q 446 44 523 31 l 523 -5 q 374 0 332 0 q 274 0 155 -5 l 155 31 q 233 44 248 52 q 258 58 261 70 q 265 83 265 172 l 265 624 l 183 624 q 142 624 128 617 q 115 610 106 592 q 93 564 69 482 l 24 482 q 33 554 35 581 q 37 608 39 688 q 232 682 417 683 q 573 685 642 688 q 642 593 656 482 z"},"P":{"x_min":0,"x_max":625,"ha":625,"o":"m 7 651 l 7 688 q 142 682 219 682 l 383 685 q 456 685 499 669 q 541 653 567 612 q 594 570 594 511 q 594 417 529 355 q 465 294 353 294 q 318 294 267 302 q 268 171 268 151 l 267 115 q 267 68 275 59 q 288 43 365 34 q 374 33 392 31 l 392 -5 q 252 0 190 0 q 118 0 7 -5 l 7 31 q 93 46 103 55 q 113 63 115 87 q 117 111 118 352 l 118 500 q 117 589 114 605 q 111 621 102 627 q 89 636 28 647 q 21 648 7 651 z m 267 357 q 296 354 318 354 q 375 354 406 389 q 438 424 438 497 q 438 561 407 594 q 375 627 318 627 q 296 627 267 623 z"},"|":{"x_min":0,"x_max":563,"ha":563,"o":"m 236 696 l 327 696 l 327 -135 l 236 -135 z"},"t":{"x_min":0,"x_max":344,"ha":344,"o":"m 338 457 l 345 450 q 329 423 317 394 q 265 399 204 401 l 203 343 l 201 276 l 200 210 q 200 117 215 93 q 230 69 255 69 q 274 69 317 88 l 334 53 q 261 8 236 0 q 204 -12 174 -12 q 128 -12 101 17 q 74 45 74 102 l 76 214 l 80 401 l 41 402 q 35 402 10 401 l 10 438 q 57 454 96 492 q 136 529 176 603 l 219 603 q 206 522 204 457 q 247 456 256 456 q 274 456 338 457 z"},"M":{"x_min":0,"x_max":979,"ha":979,"o":"m 5 651 l 5 688 q 92 682 149 682 q 209 682 280 688 q 301 632 334 556 q 425 351 495 208 l 618 473 q 647 538 664 580 q 682 622 706 688 q 799 682 841 682 q 877 682 972 688 l 972 651 q 957 648 950 647 q 887 637 877 628 q 867 619 864 592 q 861 564 861 370 q 861 124 862 113 q 863 75 867 66 q 872 57 878 53 q 895 43 950 35 l 972 31 l 972 -5 q 854 0 792 0 q 728 0 603 -5 l 603 31 q 680 45 689 49 q 699 53 704 60 q 708 67 710 79 q 712 90 712 179 q 713 371 713 479 q 713 489 712 542 q 686 487 516 109 l 467 0 l 429 0 q 374 125 181 546 q 180 482 180 438 q 180 194 184 115 q 187 70 189 65 q 192 56 204 50 q 215 44 270 35 q 277 33 290 31 l 290 -5 q 221 0 156 0 q 91 0 8 -5 l 8 31 q 72 42 85 47 q 99 52 106 63 q 113 74 113 105 l 119 416 q 120 497 120 537 q 120 598 114 617 q 110 628 99 634 q 88 640 28 648 q 20 649 5 651 z"},"g":{"x_min":0,"x_max":510,"ha":510,"o":"m 502 462 l 507 453 q 491 426 479 397 q 447 403 415 403 q 439 359 439 317 q 439 271 416 232 q 393 194 346 171 q 299 148 247 148 q 236 148 220 149 q 205 151 185 153 q 154 125 154 109 q 154 101 165 95 q 183 85 252 85 l 333 86 q 431 86 463 61 q 495 35 495 -18 q 495 -70 463 -114 q 432 -157 364 -184 q 295 -210 203 -210 q 102 -210 50 -174 q 15 -148 15 -112 q 15 -97 21 -87 q 27 -78 47 -65 q 88 -40 118 -16 q 81 -3 66 17 q 50 37 50 63 q 50 79 54 87 q 59 95 72 106 q 123 146 145 166 q 104 186 85 212 q 59 250 59 302 q 59 378 110 426 q 161 474 255 474 q 279 474 302 469 q 326 465 350 456 q 405 455 407 455 q 456 455 502 462 z m 188 324 q 188 250 213 212 q 229 189 255 189 q 278 189 294 213 q 311 236 311 300 q 311 375 287 410 q 272 432 245 432 q 221 432 204 408 q 188 385 188 324 z m 168 -24 q 122 -60 122 -92 q 122 -115 149 -135 q 176 -156 231 -156 q 305 -156 347 -129 q 389 -103 389 -69 q 389 -49 374 -39 q 355 -26 295 -26 l 235 -27 q 219 -27 168 -24 z"},"j":{"x_min":0,"x_max":292,"ha":292,"o":"m 154 705 q 188 705 211 682 q 234 659 234 625 q 234 592 211 569 q 188 545 154 545 q 121 545 98 569 q 74 592 74 625 q 74 659 98 682 q 121 705 154 705 z m 11 378 l 11 411 q 78 427 119 442 q 161 458 205 480 l 228 466 q 222 413 220 380 q 217 305 216 157 q 216 35 211 -8 q 204 -80 178 -120 q 153 -161 105 -185 q 57 -210 4 -210 q -36 -210 -77 -191 q -65 -142 -62 -58 l -19 -58 q -16 -117 -2 -136 q 13 -156 32 -156 q 52 -156 64 -139 q 81 -117 84 -51 q 87 -4 87 164 q 87 348 84 360 q 80 383 53 383 q 43 383 11 378 z"},"i":{"x_min":0,"x_max":313,"ha":313,"o":"m 162 706 q 194 706 218 682 q 241 659 241 626 q 241 594 218 571 q 194 547 162 547 q 129 547 106 571 q 83 594 83 626 q 83 659 105 682 q 128 706 162 706 z m 20 377 l 20 413 q 131 432 211 480 l 236 467 q 229 408 228 362 q 224 293 224 144 q 224 82 229 64 q 231 53 240 48 q 249 42 298 29 l 298 -5 q 230 0 174 0 q 121 0 18 -5 l 18 29 l 30 32 q 73 42 81 49 q 89 56 91 74 q 95 120 95 265 q 95 349 91 363 q 85 381 63 381 q 44 381 20 377 z"},"y":{"x_min":0,"x_max":500,"ha":500,"o":"m 0 428 l 0 462 q 89 457 138 457 q 188 457 271 462 l 271 428 q 263 426 259 426 q 229 421 222 415 q 215 410 215 401 q 215 394 226 369 l 299 186 l 357 358 q 366 386 366 399 q 366 408 360 414 q 354 420 327 428 l 327 462 q 382 457 418 457 q 457 457 498 462 l 498 428 q 461 416 451 407 q 440 398 428 372 q 416 345 354 175 q 275 -40 251 -89 q 218 -157 180 -184 q 141 -210 101 -210 q 85 -210 57 -205 q 46 -166 40 -148 q 33 -130 16 -97 l 43 -79 q 68 -102 85 -110 q 103 -118 121 -118 q 153 -118 179 -94 q 205 -71 235 14 l 96 329 q 70 389 57 401 q 44 413 0 428 z"},"@":{"x_min":0,"x_max":927,"ha":927,"o":"m 576 452 l 695 457 l 605 150 q 590 100 590 75 q 590 58 602 47 q 613 35 630 35 q 664 35 717 74 q 770 113 805 185 q 840 257 840 338 q 840 473 754 560 q 667 646 528 646 q 408 646 310 590 q 211 534 154 426 q 96 319 96 196 q 96 27 204 -81 q 312 -188 478 -188 q 615 -188 724 -115 q 833 -41 878 81 l 908 81 q 850 -63 738 -139 q 625 -216 477 -216 q 289 -216 167 -94 q 45 27 45 213 q 45 341 106 450 q 167 560 276 618 q 386 677 517 677 q 625 677 707 634 q 788 591 828 513 q 868 435 868 347 q 868 247 825 164 q 782 80 716 40 q 651 0 576 0 q 526 0 501 24 q 476 48 476 87 q 476 111 488 154 q 448 87 425 62 q 395 27 364 11 q 344 0 319 0 q 285 0 261 28 q 237 55 237 110 q 237 179 264 249 q 291 318 335 370 q 379 422 432 453 q 461 470 489 470 q 517 470 535 453 q 553 436 559 394 z m 503 435 q 490 435 476 424 q 461 413 436 369 q 411 325 387 254 q 363 183 363 135 q 363 113 372 101 q 381 89 392 89 q 406 89 431 113 q 473 154 505 231 q 537 308 537 369 q 537 404 526 419 q 515 435 503 435 z"},".":{"x_min":0,"x_max":344,"ha":344,"o":"m 172 159 q 209 159 235 133 q 260 107 260 71 q 260 34 234 9 q 208 -17 172 -17 q 136 -17 110 9 q 84 34 84 71 q 84 107 110 133 q 136 159 172 159 z"},"p":{"x_min":0,"x_max":542,"ha":542,"o":"m 4 372 l 4 406 q 83 426 117 438 q 150 450 197 475 l 221 463 q 215 426 213 385 q 272 447 290 457 q 321 474 357 474 q 420 474 465 420 q 510 366 510 265 q 510 144 438 66 q 367 -12 277 -12 q 259 -12 241 -8 q 224 -3 208 5 q 207 -19 207 -32 q 207 -139 214 -150 q 221 -162 278 -176 q 283 -178 294 -181 l 294 -215 q 197 -209 144 -209 q 89 -209 -1 -215 l -1 -181 q 53 -167 64 -157 q 76 -146 77 -129 q 81 -89 81 117 q 81 334 77 352 q 72 376 45 376 q 31 376 4 372 z m 208 70 q 227 55 245 47 q 264 39 280 39 q 321 39 341 68 q 374 114 374 209 q 374 302 342 347 q 320 378 286 378 q 257 378 235 356 q 213 333 209 282 q 208 262 208 70 z"},"X":{"x_min":0,"x_max":771,"ha":771,"o":"m 28 651 l 28 688 q 146 682 213 682 q 285 682 389 688 l 389 651 q 330 641 319 633 q 311 627 311 618 q 311 607 316 597 q 330 572 420 433 q 558 604 558 625 q 558 631 552 635 q 546 639 479 651 l 479 688 q 579 682 614 682 q 638 682 745 688 l 745 651 q 697 644 677 634 q 657 624 641 607 q 635 601 536 483 q 479 414 454 380 q 522 270 620 123 q 652 74 672 61 q 691 47 756 31 l 756 -5 q 658 0 574 0 q 490 0 406 -5 l 406 31 q 459 42 471 50 q 479 56 479 63 q 479 70 473 80 q 468 90 359 264 q 301 196 222 89 q 208 69 208 61 q 208 53 215 48 q 226 42 291 31 l 291 -5 q 206 0 150 0 q 91 0 15 -5 l 15 31 q 69 39 83 45 q 105 56 130 82 q 173 126 325 316 q 184 542 153 584 q 133 611 113 623 q 92 635 28 651 z"},"*":{"x_min":0,"x_max":479,"ha":479,"o":"m 182 712 l 300 712 l 258 535 l 413 631 l 449 518 l 270 504 l 405 387 l 310 319 l 240 487 l 170 319 l 74 387 l 212 504 l 33 521 l 70 631 l 225 535 z"},"Y":{"x_min":0,"x_max":750,"ha":750,"o":"m 0 651 l 0 688 l 97 684 q 162 682 175 682 q 223 682 350 688 l 350 651 q 294 639 286 632 q 277 625 277 618 q 277 610 285 598 q 302 569 342 498 q 382 426 422 360 l 559 610 q 564 620 564 624 q 564 631 557 636 q 550 641 492 651 l 492 688 l 516 686 q 597 682 625 682 q 655 682 752 688 l 752 651 q 688 639 669 627 q 649 614 627 582 q 613 561 452 294 l 452 119 q 452 76 457 66 q 461 56 475 49 q 483 45 545 34 l 561 31 l 561 -5 q 428 0 379 0 q 344 0 192 -5 l 192 31 q 208 34 215 35 q 268 42 283 51 q 292 56 297 69 q 302 81 302 141 l 302 285 q 269 334 206 438 q 123 571 106 594 q 88 618 69 629 q 50 641 0 651 z"},"c":{"x_min":0,"x_max":448,"ha":448,"o":"m 407 301 l 363 304 q 358 373 334 400 q 311 427 274 427 q 229 427 203 393 q 167 347 167 260 q 167 172 206 126 q 245 80 299 80 q 323 80 347 88 q 372 95 412 117 l 435 80 q 354 17 316 0 q 278 -17 235 -17 q 148 -17 91 44 q 34 104 34 208 q 34 319 101 399 q 167 479 287 479 q 355 479 435 442 q 425 403 416 350 q 410 318 407 301 z"},"!":{"x_min":0,"x_max":344,"ha":344,"o":"m 238 702 l 262 684 q 234 532 192 199 l 146 199 q 110 504 85 648 q 180 678 238 702 z m 170 156 q 207 156 232 131 q 257 105 257 69 q 257 34 232 8 q 207 -17 170 -17 q 135 -17 109 8 q 84 34 84 69 q 84 105 109 131 q 134 156 170 156 z"},"/":{"x_min":0,"x_max":563,"ha":563,"o":"m 411 696 l 508 696 l 151 -18 l 55 -18 z"},"[":{"x_min":0,"x_max":365,"ha":365,"o":"m 319 705 l 319 652 l 227 652 l 227 -149 l 319 -149 l 319 -202 q 240 -199 204 -199 q 160 -199 94 -202 q 98 -58 98 244 q 98 604 94 705 q 168 702 210 702 q 231 702 319 705 z"},"6":{"x_min":0,"x_max":510,"ha":510,"o":"m 428 702 l 444 651 q 367 616 321 581 q 275 545 244 500 q 213 454 187 381 q 244 428 271 441 q 299 455 322 455 q 385 455 436 398 q 486 340 486 247 q 486 158 437 83 q 369 -17 249 -17 q 150 -17 88 52 q 26 120 26 244 q 26 341 70 433 q 113 525 206 595 q 299 666 428 702 z m 165 227 q 165 130 205 75 q 231 39 271 39 q 307 39 331 71 q 354 103 354 183 q 354 277 318 326 q 293 360 254 360 q 217 360 191 328 q 165 296 165 227 z"},"r":{"x_min":0,"x_max":385,"ha":385,"o":"m 11 374 l 11 408 q 132 435 204 475 l 228 461 q 219 410 218 349 q 268 427 291 445 q 315 463 347 463 q 369 463 396 451 q 380 390 372 325 l 339 325 q 336 344 326 354 q 316 363 302 363 q 280 363 261 343 q 232 312 221 267 q 215 244 215 188 q 215 89 217 74 q 219 59 228 51 q 237 44 282 34 q 289 32 301 29 l 301 -5 q 208 0 151 0 q 90 0 11 -5 l 11 29 q 69 41 77 56 q 88 77 88 257 q 88 352 81 365 q 74 378 55 378 q 40 378 11 374 z"},"2":{"x_min":0,"x_max":510,"ha":510,"o":"m 99 490 l 50 490 q 77 571 78 638 q 123 668 167 684 q 212 699 257 699 q 340 699 392 649 q 444 599 444 527 q 444 473 422 420 q 399 368 343 302 q 319 273 160 114 l 331 114 q 371 114 384 118 q 397 122 409 134 q 420 146 438 184 l 485 184 q 438 72 413 -5 q 291 0 205 0 q 113 0 10 -5 l 10 37 q 81 105 173 217 q 229 287 258 332 q 286 377 298 414 q 310 452 310 488 q 310 540 282 569 q 255 599 215 599 q 178 599 150 575 q 121 552 99 490 z"},"{":{"x_min":0,"x_max":396,"ha":396,"o":"m 352 677 l 352 655 q 303 646 280 621 q 256 596 256 563 q 256 531 268 482 q 280 434 280 399 q 280 364 260 329 q 240 294 202 271 q 176 254 121 239 q 180 220 207 202 q 244 177 262 143 q 281 109 281 77 q 281 50 269 0 q 257 -49 257 -83 q 257 -119 279 -144 q 301 -169 352 -179 l 352 -202 q 307 -202 286 -197 q 250 -188 219 -166 q 188 -145 169 -112 q 150 -80 150 -45 q 150 -14 165 45 q 176 88 176 121 q 176 161 152 188 q 128 215 81 223 l 81 253 q 128 261 152 289 q 176 317 176 359 q 176 391 166 433 q 150 491 150 520 q 150 552 169 585 q 188 618 217 638 q 246 659 280 668 q 306 676 352 677 z"},"9":{"x_min":0,"x_max":510,"ha":510,"o":"m 88 -25 l 70 25 q 144 55 196 97 q 248 140 282 200 q 304 238 321 296 q 251 243 234 235 q 216 227 191 227 q 126 227 74 287 q 22 347 22 443 q 22 511 53 572 q 83 633 140 666 q 197 699 268 699 q 368 699 428 634 q 488 569 488 447 q 488 353 448 262 q 401 153 310 83 q 220 12 88 -25 z m 157 505 q 157 412 194 361 q 220 326 260 326 q 297 326 322 358 q 347 389 347 463 q 347 520 332 563 q 317 606 293 624 q 269 642 244 642 q 208 642 182 610 q 157 579 157 505 z"}," ":{"x_min":0,"x_max":255,"ha":255,"o":""},"I":{"x_min":0,"x_max":385,"ha":385,"o":"m 377 688 l 377 651 l 359 649 q 294 641 281 629 q 269 618 269 584 l 269 566 l 268 403 l 268 216 l 269 121 q 269 79 273 68 q 277 57 287 52 q 305 42 359 34 q 365 33 377 31 l 377 -5 q 277 0 201 0 q 129 0 10 -5 l 10 31 q 86 45 93 48 q 104 52 110 61 q 118 72 118 106 q 119 188 119 382 l 118 560 l 118 575 q 118 614 106 625 q 95 636 31 647 q 23 648 10 651 l 10 688 q 135 682 198 682 q 265 682 377 688 z"},"H":{"x_min":0,"x_max":802,"ha":802,"o":"m 8 651 l 8 688 q 96 682 188 682 q 283 682 376 688 l 376 651 q 302 639 289 633 q 276 627 271 616 q 266 604 266 544 l 266 511 l 266 385 q 335 383 414 383 q 485 383 539 385 l 538 559 q 538 605 532 617 q 527 628 512 634 q 500 639 428 651 l 428 688 q 522 682 602 682 q 676 682 796 688 l 796 651 l 719 635 q 706 631 701 626 q 696 622 693 614 q 688 598 688 513 q 687 378 687 337 q 687 170 689 91 q 690 65 701 54 q 712 44 777 34 l 796 31 l 796 -5 q 693 0 613 0 q 533 0 428 -5 l 428 31 l 510 47 q 525 52 531 62 q 537 72 537 107 l 539 323 l 404 325 q 395 325 266 323 q 266 123 269 84 q 270 63 281 53 q 292 43 355 34 q 362 33 376 31 l 376 -5 q 268 0 182 0 q 93 0 8 -5 l 8 31 q 75 44 89 49 q 104 54 110 64 q 116 75 116 110 l 118 301 q 118 450 116 555 q 116 607 108 620 q 104 628 93 633 q 82 638 8 651 z"},"4":{"x_min":0,"x_max":510,"ha":510,"o":"m 173 -5 l 173 27 q 245 40 259 47 q 268 52 271 63 q 277 80 280 158 l 69 158 q 55 158 7 156 q 6 198 2 241 q 68 331 197 520 q 245 590 280 644 q 333 666 388 706 l 413 689 q 400 572 400 491 l 401 301 l 401 253 q 451 254 496 263 l 510 245 q 484 204 465 155 q 437 159 401 159 q 403 78 405 66 q 408 55 416 48 q 428 40 474 32 q 481 30 497 27 l 497 -5 q 404 0 334 0 q 262 0 173 -5 z m 281 250 l 281 538 l 84 250 z"},"~":{"x_min":0,"x_max":667,"ha":667,"o":"m 571 412 l 602 412 q 598 329 560 287 q 521 245 464 245 q 438 245 407 253 q 377 262 281 302 q 211 332 180 332 q 147 332 125 311 q 104 291 96 245 l 65 245 q 69 332 106 372 q 144 413 197 413 q 226 413 251 405 q 300 392 385 355 q 432 335 455 328 q 470 324 486 324 q 520 324 543 347 q 566 369 571 412 z"},"D":{"x_min":0,"x_max":823,"ha":823,"o":"m 12 651 l 12 688 q 125 682 200 682 q 256 682 356 685 q 429 688 478 688 q 570 688 624 664 q 698 632 740 565 q 782 498 782 392 q 782 273 727 181 q 672 89 572 38 q 488 -6 369 -6 q 358 -6 278 -3 q 199 0 189 0 q 155 0 12 -5 l 12 31 l 32 35 q 96 46 107 56 q 118 65 120 84 q 123 113 123 381 q 123 578 119 603 q 116 620 106 627 q 97 635 32 647 z m 274 60 q 333 50 373 50 q 485 50 542 116 q 615 201 615 363 q 615 501 551 573 q 499 632 387 632 q 340 632 274 623 q 269 546 269 340 q 269 221 274 60 z"},"^":{"x_min":0,"x_max":583,"ha":583,"o":"m 73 325 l 274 676 l 314 676 l 511 325 l 434 325 l 290 575 l 148 325 z"},"0":{"x_min":0,"x_max":510,"ha":510,"o":"m 29 356 q 29 440 54 525 q 79 611 135 655 q 191 699 266 699 q 362 699 416 631 q 481 549 481 366 q 481 153 407 55 q 352 -17 250 -17 q 180 -17 134 14 q 89 45 59 121 q 29 196 29 356 z m 177 354 q 177 219 183 161 q 191 84 212 59 q 232 33 258 33 q 298 33 314 81 q 333 143 333 349 q 333 558 303 614 q 285 648 253 648 q 235 648 222 637 q 208 626 199 604 q 187 574 183 535 q 177 468 177 354 z"},"F":{"x_min":0,"x_max":625,"ha":625,"o":"m 7 651 l 7 688 q 169 682 246 682 q 448 682 599 688 q 602 579 612 495 l 572 495 l 567 510 q 546 577 529 602 q 522 612 508 617 q 495 622 454 622 l 267 622 l 267 386 l 352 386 q 401 386 414 391 q 426 396 434 408 q 445 427 458 488 l 499 488 q 493 414 493 347 q 493 286 499 225 l 458 225 q 442 297 436 311 q 431 321 420 326 q 407 331 355 331 l 267 331 l 267 112 q 267 73 272 63 q 276 53 288 49 q 306 41 367 34 q 375 33 390 31 l 390 -5 q 269 0 187 0 q 105 0 7 -5 l 7 31 q 91 45 102 54 q 113 63 115 86 q 116 104 117 354 l 117 485 l 117 525 q 117 598 113 611 q 109 625 101 630 q 89 637 26 648 q 20 649 7 651 z"},"`":{"x_min":0,"x_max":333,"ha":333,"o":"m 233 526 l 190 526 q 109 620 44 685 l 52 697 q 87 695 110 695 q 128 695 177 697 q 189 653 197 630 z"},"k":{"x_min":0,"x_max":542,"ha":542,"o":"m 9 611 l 9 643 q 123 670 203 712 l 226 696 q 219 635 216 570 q 214 504 213 252 q 237 276 296 341 q 337 385 340 391 q 344 397 344 403 q 344 412 336 417 q 327 424 298 427 l 298 462 q 388 457 419 457 q 450 457 536 462 l 536 427 q 479 417 451 399 q 411 375 322 289 q 333 274 441 123 q 482 66 502 51 q 517 40 554 29 l 554 -5 q 464 0 425 0 q 386 0 298 -5 l 298 29 q 319 34 324 38 q 328 42 328 49 q 328 55 324 63 q 318 73 250 183 l 213 242 l 213 135 q 213 71 216 62 q 219 49 227 43 q 235 37 271 29 l 271 -5 q 192 0 141 0 q 92 0 9 -5 l 9 29 q 60 40 71 52 q 79 62 82 119 q 84 176 84 454 q 84 584 82 595 q 76 614 49 614 q 36 614 9 611 z"},"u":{"x_min":0,"x_max":552,"ha":552,"o":"m 547 70 l 547 34 q 477 25 435 14 q 394 3 353 -15 l 330 0 q 335 34 338 70 q 276 13 252 0 q 228 -12 195 -12 q 158 -12 132 1 q 105 15 92 35 q 79 56 75 90 q 73 111 73 201 l 73 298 q 73 378 62 392 q 52 405 -5 410 l -5 442 q 106 451 187 475 l 209 460 q 206 436 203 388 q 199 302 199 236 q 199 135 213 106 q 226 77 263 77 q 292 77 313 95 q 334 114 340 152 q 345 176 345 306 q 345 381 336 392 q 327 403 268 410 l 268 442 q 353 451 389 457 q 426 464 461 475 l 484 461 q 477 417 475 378 q 471 313 471 182 q 471 96 476 85 q 482 69 506 69 l 512 69 q 524 70 547 70 z"},"]":{"x_min":0,"x_max":365,"ha":365,"o":"m 45 -202 l 45 -149 l 138 -149 l 138 652 l 45 652 l 45 705 q 125 702 161 702 q 204 702 270 705 q 267 561 267 259 q 267 -101 270 -202 q 196 -200 154 -200 q 133 -200 45 -202 z"},"U":{"x_min":0,"x_max":792,"ha":792,"o":"m 5 651 l 5 688 q 120 682 188 682 q 257 682 370 688 l 370 651 q 298 640 280 631 q 268 626 264 617 q 259 605 259 553 l 259 303 q 259 206 270 171 q 284 125 323 98 q 362 70 433 70 q 512 70 552 102 q 592 134 603 186 q 615 238 615 365 q 615 395 611 530 q 608 605 604 619 q 601 626 593 631 q 584 637 530 647 q 523 649 511 651 l 511 688 q 614 682 657 682 q 708 682 790 688 l 790 651 q 715 638 704 629 q 692 621 689 605 q 685 578 684 356 q 683 229 677 190 q 669 136 651 102 q 632 68 597 39 q 562 10 519 -3 q 462 -20 397 -20 q 289 -20 225 11 q 161 43 135 94 q 110 145 110 243 l 110 545 q 110 603 104 618 q 100 628 89 633 q 78 638 5 651 z"},"o":{"x_min":0,"x_max":552,"ha":552,"o":"m 36 237 q 36 345 103 412 q 170 479 281 479 q 392 479 454 417 q 516 355 516 247 q 516 122 450 52 q 384 -17 271 -17 q 158 -17 97 47 q 36 112 36 237 z m 182 263 q 182 125 220 65 q 242 30 283 30 q 321 30 341 60 q 371 103 371 207 q 371 340 334 396 q 312 432 271 432 q 233 432 211 401 q 182 360 182 263 z"},"N":{"x_min":0,"x_max":802,"ha":802,"o":"m 3 651 l 3 688 q 70 682 127 682 q 186 682 264 688 q 324 607 623 245 l 621 510 q 618 607 613 618 q 608 629 596 635 q 584 642 514 651 l 514 688 q 592 682 651 682 q 708 682 795 688 l 795 651 q 780 648 773 647 q 715 639 704 628 q 693 618 691 585 q 686 517 686 304 q 686 167 691 -9 q 668 -16 646 -25 l 461 208 l 179 552 l 180 320 l 184 94 q 186 69 189 62 q 192 56 199 52 q 209 45 268 35 q 275 34 289 31 l 289 -5 q 205 0 154 0 q 110 0 6 -5 l 6 31 q 21 34 29 35 q 85 44 96 52 q 103 58 106 68 q 109 78 112 213 q 118 409 118 549 q 118 596 113 609 q 107 622 94 629 q 81 637 27 646 q 19 648 3 651 z"},"+":{"x_min":0,"x_max":667,"ha":667,"o":"m 63 373 l 288 373 l 288 598 l 378 598 l 378 373 l 603 373 l 603 282 l 378 282 l 378 59 l 288 59 l 288 282 l 63 282 z"},"G":{"x_min":0,"x_max":854,"ha":854,"o":"m 838 354 l 838 319 q 771 307 753 298 q 744 293 740 281 q 735 269 735 206 q 735 105 738 28 q 705 22 666 14 q 562 -8 516 -14 q 471 -20 418 -20 q 297 -20 226 10 q 138 49 91 129 q 44 210 44 321 q 44 519 190 626 q 294 702 466 702 q 581 702 725 669 q 724 640 724 623 q 724 565 729 460 l 679 460 q 658 542 637 573 q 617 604 573 623 q 529 642 466 642 q 384 642 328 608 q 273 575 242 504 q 212 434 212 342 q 212 195 281 120 q 350 45 463 45 q 520 45 585 70 l 585 221 q 585 270 581 284 q 577 293 567 298 q 557 304 504 314 q 499 316 486 319 l 486 354 q 599 349 655 349 q 697 349 838 354 z"},"q":{"x_min":0,"x_max":521,"ha":521,"o":"m 450 479 l 480 462 q 469 415 466 381 q 461 325 461 184 q 461 -79 464 -112 q 466 -145 477 -156 q 489 -168 544 -181 l 544 -215 q 442 -209 391 -209 q 332 -209 247 -215 l 247 -181 q 313 -166 324 -154 q 334 -143 334 -104 l 334 -95 l 335 64 q 282 18 242 -1 q 218 -12 190 -12 q 123 -12 78 42 q 32 96 32 202 q 32 342 125 417 q 195 474 284 474 q 316 474 344 464 q 372 455 404 433 q 428 453 450 479 z m 333 261 q 333 333 329 355 q 321 386 305 400 q 289 415 260 415 q 224 415 203 385 q 169 339 169 252 q 169 156 201 112 q 225 79 261 79 q 286 79 304 96 q 322 114 328 149 q 331 164 333 261 z"},"d":{"x_min":0,"x_max":542,"ha":542,"o":"m 261 608 l 261 644 q 373 667 455 712 l 479 695 q 472 633 468 553 q 465 472 465 373 q 465 196 466 123 q 466 88 475 80 q 483 71 504 71 q 509 71 541 72 l 541 37 q 480 29 438 18 q 395 7 346 -12 l 322 0 q 327 30 330 63 q 274 17 238 0 q 212 -13 182 -13 q 125 -13 85 37 q 33 100 33 201 q 33 250 47 299 q 61 348 92 385 q 122 423 173 448 q 223 473 276 473 q 288 473 302 471 q 317 468 334 463 q 336 517 336 539 q 336 591 328 602 q 320 613 300 613 q 286 613 261 608 z m 335 250 q 335 350 321 379 q 303 416 262 416 q 227 416 199 378 q 171 340 171 249 q 171 159 204 113 q 227 82 262 82 q 303 82 322 124 q 335 155 335 250 z"},"1":{"x_min":0,"x_max":510,"ha":510,"o":"m 90 581 l 90 613 q 184 644 227 661 q 271 678 314 699 l 340 682 q 333 620 330 537 q 327 453 327 348 q 327 135 329 87 q 331 60 340 51 q 349 42 402 33 q 409 32 423 29 l 423 -5 q 331 0 262 0 q 191 0 100 -5 l 100 29 q 168 40 181 49 q 189 56 191 74 q 197 119 197 316 q 197 478 196 523 q 195 568 187 578 q 178 589 161 589 q 137 589 90 581 z"},"5":{"x_min":0,"x_max":510,"ha":510,"o":"m 466 687 l 478 671 q 444 620 422 567 q 327 568 181 568 q 169 526 159 481 q 179 482 190 482 q 315 482 384 418 q 453 354 453 252 q 453 139 372 61 q 292 -17 164 -17 q 104 -17 39 3 q 51 62 61 157 l 105 155 q 118 97 140 68 q 162 38 208 38 q 258 38 293 79 q 329 120 329 193 q 329 271 281 318 q 234 365 158 365 q 133 365 88 358 l 65 382 q 115 510 145 682 q 257 677 337 677 q 410 677 466 687 z"}}}
